<mxfile host="app.diagrams.net" modified="2022-07-27T09:57:01.309Z" agent="5.0 (Macintosh; Intel Mac OS X 10_15_7) AppleWebKit/537.36 (KHTML, like Gecko) Chrome/103.0.0.0 Safari/537.36" etag="K3CPYGo6L3x3a420SXtk" version="20.1.1" type="github">
  <diagram id="XIDQJYdYmwVAsooqswqh" name="Page-1">
    <mxGraphModel dx="1261" dy="788" grid="1" gridSize="10" guides="1" tooltips="1" connect="1" arrows="1" fold="1" page="1" pageScale="1" pageWidth="827" pageHeight="1169" math="0" shadow="0">
      <root>
        <mxCell id="0" />
        <mxCell id="1" parent="0" />
        <mxCell id="QniNfG86rQvx6eTEdX7I-1" value="work 1" style="rounded=0;whiteSpace=wrap;html=1;" parent="1" vertex="1">
          <mxGeometry x="200" y="120" width="80" height="40" as="geometry" />
        </mxCell>
        <mxCell id="QniNfG86rQvx6eTEdX7I-2" value="work 2" style="rounded=0;whiteSpace=wrap;html=1;" parent="1" vertex="1">
          <mxGeometry x="200" y="180" width="80" height="40" as="geometry" />
        </mxCell>
        <mxCell id="QniNfG86rQvx6eTEdX7I-3" value="work 3" style="rounded=0;whiteSpace=wrap;html=1;" parent="1" vertex="1">
          <mxGeometry x="200" y="240" width="80" height="40" as="geometry" />
        </mxCell>
        <mxCell id="QniNfG86rQvx6eTEdX7I-4" value="work 4" style="rounded=0;whiteSpace=wrap;html=1;" parent="1" vertex="1">
          <mxGeometry x="200" y="300" width="80" height="40" as="geometry" />
        </mxCell>
        <mxCell id="QniNfG86rQvx6eTEdX7I-5" value="" style="shape=curlyBracket;whiteSpace=wrap;html=1;rounded=1;" parent="1" vertex="1">
          <mxGeometry x="160" y="140" width="30" height="180" as="geometry" />
        </mxCell>
        <mxCell id="QniNfG86rQvx6eTEdX7I-6" value="" style="shape=curlyBracket;whiteSpace=wrap;html=1;rounded=1;rotation=90;size=0.5;" parent="1" vertex="1">
          <mxGeometry x="225" y="56.88" width="30" height="76.25" as="geometry" />
        </mxCell>
        <mxCell id="QniNfG86rQvx6eTEdX7I-7" value="task" style="rounded=0;whiteSpace=wrap;html=1;" parent="1" vertex="1">
          <mxGeometry x="390" y="200" width="40" height="60" as="geometry" />
        </mxCell>
        <mxCell id="QniNfG86rQvx6eTEdX7I-10" value="task" style="rounded=0;whiteSpace=wrap;html=1;" parent="1" vertex="1">
          <mxGeometry x="440" y="200" width="40" height="60" as="geometry" />
        </mxCell>
        <mxCell id="QniNfG86rQvx6eTEdX7I-11" value="task" style="rounded=0;whiteSpace=wrap;html=1;" parent="1" vertex="1">
          <mxGeometry x="490" y="200" width="40" height="60" as="geometry" />
        </mxCell>
        <mxCell id="QniNfG86rQvx6eTEdX7I-12" value="task" style="rounded=0;whiteSpace=wrap;html=1;" parent="1" vertex="1">
          <mxGeometry x="540" y="200" width="40" height="60" as="geometry" />
        </mxCell>
        <mxCell id="QniNfG86rQvx6eTEdX7I-13" value="" style="shape=curlyBracket;whiteSpace=wrap;html=1;rounded=1;rotation=-90;" parent="1" vertex="1">
          <mxGeometry x="470" y="190" width="30" height="180" as="geometry" />
        </mxCell>
        <mxCell id="QniNfG86rQvx6eTEdX7I-14" value="worker是一个线程，会不断执行任务。&lt;br&gt;任务执行完后，会从workQueue中继续获取，如果workQueue为空，就阻塞等待" style="text;html=1;strokeColor=none;fillColor=none;align=center;verticalAlign=middle;whiteSpace=wrap;rounded=0;" parent="1" vertex="1">
          <mxGeometry x="127.5" y="20" width="225" height="60" as="geometry" />
        </mxCell>
        <mxCell id="QniNfG86rQvx6eTEdX7I-15" value="worker集合，&lt;br&gt;即线程池" style="text;html=1;strokeColor=none;fillColor=none;align=center;verticalAlign=middle;whiteSpace=wrap;rounded=0;" parent="1" vertex="1">
          <mxGeometry x="60" y="215" width="90" height="30" as="geometry" />
        </mxCell>
        <mxCell id="QniNfG86rQvx6eTEdX7I-16" value="workQueue，存放任务的阻塞队列" style="text;html=1;strokeColor=none;fillColor=none;align=center;verticalAlign=middle;whiteSpace=wrap;rounded=0;" parent="1" vertex="1">
          <mxGeometry x="435" y="300" width="100" height="30" as="geometry" />
        </mxCell>
        <mxCell id="QniNfG86rQvx6eTEdX7I-18" value="" style="endArrow=blockThin;html=1;rounded=0;entryX=1;entryY=0.5;entryDx=0;entryDy=0;endFill=1;" parent="1" target="QniNfG86rQvx6eTEdX7I-1" edge="1">
          <mxGeometry width="50" height="50" relative="1" as="geometry">
            <mxPoint x="330" y="140" as="sourcePoint" />
            <mxPoint x="470" y="160" as="targetPoint" />
          </mxGeometry>
        </mxCell>
        <mxCell id="QniNfG86rQvx6eTEdX7I-19" value="" style="endArrow=blockThin;html=1;rounded=0;entryX=1;entryY=0.5;entryDx=0;entryDy=0;endFill=1;" parent="1" edge="1">
          <mxGeometry width="50" height="50" relative="1" as="geometry">
            <mxPoint x="330" y="199.13" as="sourcePoint" />
            <mxPoint x="280" y="199.13" as="targetPoint" />
          </mxGeometry>
        </mxCell>
        <mxCell id="QniNfG86rQvx6eTEdX7I-20" value="" style="endArrow=blockThin;html=1;rounded=0;entryX=1;entryY=0.5;entryDx=0;entryDy=0;endFill=1;" parent="1" edge="1">
          <mxGeometry width="50" height="50" relative="1" as="geometry">
            <mxPoint x="330" y="259.57" as="sourcePoint" />
            <mxPoint x="280" y="259.57" as="targetPoint" />
          </mxGeometry>
        </mxCell>
        <mxCell id="QniNfG86rQvx6eTEdX7I-21" value="" style="endArrow=blockThin;html=1;rounded=0;entryX=1;entryY=0.5;entryDx=0;entryDy=0;endFill=1;" parent="1" edge="1">
          <mxGeometry width="50" height="50" relative="1" as="geometry">
            <mxPoint x="330" y="319.13" as="sourcePoint" />
            <mxPoint x="280" y="319.13" as="targetPoint" />
          </mxGeometry>
        </mxCell>
        <mxCell id="QniNfG86rQvx6eTEdX7I-22" value="" style="endArrow=none;html=1;rounded=0;" parent="1" edge="1">
          <mxGeometry width="50" height="50" relative="1" as="geometry">
            <mxPoint x="330" y="320" as="sourcePoint" />
            <mxPoint x="330" y="140" as="targetPoint" />
          </mxGeometry>
        </mxCell>
        <mxCell id="QniNfG86rQvx6eTEdX7I-23" value="" style="endArrow=none;html=1;rounded=0;entryX=0;entryY=0.5;entryDx=0;entryDy=0;" parent="1" target="QniNfG86rQvx6eTEdX7I-7" edge="1">
          <mxGeometry width="50" height="50" relative="1" as="geometry">
            <mxPoint x="330" y="230" as="sourcePoint" />
            <mxPoint x="470" y="160" as="targetPoint" />
          </mxGeometry>
        </mxCell>
        <mxCell id="AW1LEWpmzd-rb1zfkhtk-1" value="" style="rounded=0;whiteSpace=wrap;html=1;fillColor=#f5f5f5;strokeColor=none;fontColor=#333333;" vertex="1" parent="1">
          <mxGeometry x="200" y="520" width="600" height="480" as="geometry" />
        </mxCell>
        <mxCell id="AW1LEWpmzd-rb1zfkhtk-39" style="edgeStyle=orthogonalEdgeStyle;rounded=0;orthogonalLoop=1;jettySize=auto;html=1;exitX=0.5;exitY=0;exitDx=0;exitDy=0;fontSize=14;endArrow=blockThin;endFill=1;entryX=0;entryY=0.5;entryDx=0;entryDy=0;" edge="1" parent="1" source="AW1LEWpmzd-rb1zfkhtk-2" target="AW1LEWpmzd-rb1zfkhtk-3">
          <mxGeometry relative="1" as="geometry" />
        </mxCell>
        <mxCell id="AW1LEWpmzd-rb1zfkhtk-40" style="edgeStyle=orthogonalEdgeStyle;rounded=0;orthogonalLoop=1;jettySize=auto;html=1;exitX=0.5;exitY=1;exitDx=0;exitDy=0;entryX=0.295;entryY=0;entryDx=0;entryDy=0;entryPerimeter=0;fontSize=14;endArrow=blockThin;endFill=1;" edge="1" parent="1" source="AW1LEWpmzd-rb1zfkhtk-2" target="AW1LEWpmzd-rb1zfkhtk-30">
          <mxGeometry relative="1" as="geometry" />
        </mxCell>
        <mxCell id="AW1LEWpmzd-rb1zfkhtk-2" value="&lt;font style=&quot;font-size: 14px;&quot;&gt;execute()&lt;/font&gt;" style="rounded=1;whiteSpace=wrap;html=1;" vertex="1" parent="1">
          <mxGeometry x="240" y="735" width="100" height="50" as="geometry" />
        </mxCell>
        <mxCell id="AW1LEWpmzd-rb1zfkhtk-3" value="" style="rounded=0;whiteSpace=wrap;html=1;fontSize=14;fillColor=#fff2cc;strokeColor=none;" vertex="1" parent="1">
          <mxGeometry x="520" y="540" width="220" height="90" as="geometry" />
        </mxCell>
        <mxCell id="AW1LEWpmzd-rb1zfkhtk-4" value="" style="rounded=0;whiteSpace=wrap;html=1;fontSize=14;" vertex="1" parent="1">
          <mxGeometry x="530" y="580" width="40" height="40" as="geometry" />
        </mxCell>
        <mxCell id="AW1LEWpmzd-rb1zfkhtk-5" value="" style="rounded=0;whiteSpace=wrap;html=1;fontSize=14;" vertex="1" parent="1">
          <mxGeometry x="570" y="580" width="40" height="40" as="geometry" />
        </mxCell>
        <mxCell id="AW1LEWpmzd-rb1zfkhtk-6" value="" style="rounded=0;whiteSpace=wrap;html=1;fontSize=14;" vertex="1" parent="1">
          <mxGeometry x="610" y="580" width="40" height="40" as="geometry" />
        </mxCell>
        <mxCell id="AW1LEWpmzd-rb1zfkhtk-7" value="" style="rounded=0;whiteSpace=wrap;html=1;fontSize=14;" vertex="1" parent="1">
          <mxGeometry x="650" y="580" width="40" height="40" as="geometry" />
        </mxCell>
        <mxCell id="AW1LEWpmzd-rb1zfkhtk-8" value="" style="rounded=0;whiteSpace=wrap;html=1;fontSize=14;" vertex="1" parent="1">
          <mxGeometry x="690" y="580" width="40" height="40" as="geometry" />
        </mxCell>
        <mxCell id="AW1LEWpmzd-rb1zfkhtk-11" value="" style="sketch=0;dashed=0;connectable=0;html=1;fillColor=#757575;strokeColor=none;shape=mxgraph.gcp2.task_queues;part=1;labelPosition=right;verticalLabelPosition=middle;align=left;verticalAlign=middle;spacingLeft=5;fontSize=12;" vertex="1" parent="1">
          <mxGeometry x="534" y="584" width="32" height="32" as="geometry" />
        </mxCell>
        <mxCell id="AW1LEWpmzd-rb1zfkhtk-13" value="" style="sketch=0;dashed=0;connectable=0;html=1;fillColor=#757575;strokeColor=none;shape=mxgraph.gcp2.task_queues;part=1;labelPosition=right;verticalLabelPosition=middle;align=left;verticalAlign=middle;spacingLeft=5;fontSize=12;" vertex="1" parent="1">
          <mxGeometry x="654" y="584" width="32" height="32" as="geometry" />
        </mxCell>
        <mxCell id="AW1LEWpmzd-rb1zfkhtk-14" value="" style="sketch=0;dashed=0;connectable=0;html=1;fillColor=#757575;strokeColor=none;shape=mxgraph.gcp2.task_queues;part=1;labelPosition=right;verticalLabelPosition=middle;align=left;verticalAlign=middle;spacingLeft=5;fontSize=12;" vertex="1" parent="1">
          <mxGeometry x="694" y="584" width="32" height="32" as="geometry" />
        </mxCell>
        <mxCell id="AW1LEWpmzd-rb1zfkhtk-15" value="" style="sketch=0;dashed=0;connectable=0;html=1;fillColor=#757575;strokeColor=none;shape=mxgraph.gcp2.task_queues;part=1;labelPosition=right;verticalLabelPosition=middle;align=left;verticalAlign=middle;spacingLeft=5;fontSize=12;" vertex="1" parent="1">
          <mxGeometry x="614" y="584" width="32" height="32" as="geometry" />
        </mxCell>
        <mxCell id="AW1LEWpmzd-rb1zfkhtk-16" value="..." style="text;html=1;strokeColor=none;fillColor=none;align=center;verticalAlign=middle;whiteSpace=wrap;rounded=0;fontSize=14;" vertex="1" parent="1">
          <mxGeometry x="575" y="585" width="30" height="30" as="geometry" />
        </mxCell>
        <mxCell id="AW1LEWpmzd-rb1zfkhtk-17" value="BlockingQueue&amp;lt;Runnable&amp;gt;" style="text;html=1;strokeColor=none;fillColor=none;align=center;verticalAlign=middle;whiteSpace=wrap;rounded=0;fontSize=14;" vertex="1" parent="1">
          <mxGeometry x="520" y="540" width="180" height="30" as="geometry" />
        </mxCell>
        <mxCell id="AW1LEWpmzd-rb1zfkhtk-18" value="" style="rounded=0;whiteSpace=wrap;html=1;fontSize=14;fillColor=#e1d5e7;strokeColor=none;" vertex="1" parent="1">
          <mxGeometry x="520" y="680" width="220" height="300" as="geometry" />
        </mxCell>
        <mxCell id="AW1LEWpmzd-rb1zfkhtk-19" value="Thread Pool" style="text;html=1;strokeColor=none;fillColor=none;align=center;verticalAlign=middle;whiteSpace=wrap;rounded=0;fontSize=14;" vertex="1" parent="1">
          <mxGeometry x="520" y="680" width="90" height="30" as="geometry" />
        </mxCell>
        <mxCell id="AW1LEWpmzd-rb1zfkhtk-20" value="" style="rounded=0;whiteSpace=wrap;html=1;fontSize=14;strokeColor=none;fillColor=#bac8d3;" vertex="1" parent="1">
          <mxGeometry x="530" y="725" width="200" height="125" as="geometry" />
        </mxCell>
        <mxCell id="AW1LEWpmzd-rb1zfkhtk-21" value="corePool" style="text;html=1;strokeColor=none;fillColor=none;align=center;verticalAlign=middle;whiteSpace=wrap;rounded=0;fontSize=14;" vertex="1" parent="1">
          <mxGeometry x="530" y="725" width="70" height="30" as="geometry" />
        </mxCell>
        <mxCell id="AW1LEWpmzd-rb1zfkhtk-22" value="" style="rounded=0;whiteSpace=wrap;html=1;fontSize=14;fillColor=#f8cecc;strokeColor=none;" vertex="1" parent="1">
          <mxGeometry x="240" y="850" width="230" height="130" as="geometry" />
        </mxCell>
        <mxCell id="AW1LEWpmzd-rb1zfkhtk-23" value="&lt;font style=&quot;font-size: 16px;&quot;&gt;ThreadPoolExecutor&lt;/font&gt;" style="text;html=1;strokeColor=none;fillColor=none;align=center;verticalAlign=middle;whiteSpace=wrap;rounded=0;fontSize=14;" vertex="1" parent="1">
          <mxGeometry x="200" y="520" width="160" height="30" as="geometry" />
        </mxCell>
        <mxCell id="AW1LEWpmzd-rb1zfkhtk-25" value="&lt;font style=&quot;font-size: 12px;&quot;&gt;thread 1&lt;/font&gt;" style="ellipse;whiteSpace=wrap;html=1;fontSize=16;" vertex="1" parent="1">
          <mxGeometry x="560" y="755" width="75" height="35" as="geometry" />
        </mxCell>
        <mxCell id="AW1LEWpmzd-rb1zfkhtk-26" value="&lt;font style=&quot;font-size: 12px;&quot;&gt;thread 2&lt;/font&gt;" style="ellipse;whiteSpace=wrap;html=1;fontSize=16;" vertex="1" parent="1">
          <mxGeometry x="632.5" y="785" width="75" height="35" as="geometry" />
        </mxCell>
        <mxCell id="AW1LEWpmzd-rb1zfkhtk-27" value="&lt;font style=&quot;font-size: 12px;&quot;&gt;thread 3&lt;/font&gt;" style="ellipse;whiteSpace=wrap;html=1;fontSize=16;" vertex="1" parent="1">
          <mxGeometry x="557.5" y="810" width="75" height="35" as="geometry" />
        </mxCell>
        <mxCell id="AW1LEWpmzd-rb1zfkhtk-28" value="&lt;font style=&quot;font-size: 12px;&quot;&gt;thread 4&lt;/font&gt;" style="ellipse;whiteSpace=wrap;html=1;fontSize=16;dashed=1;" vertex="1" parent="1">
          <mxGeometry x="557.5" y="870" width="75" height="35" as="geometry" />
        </mxCell>
        <mxCell id="AW1LEWpmzd-rb1zfkhtk-29" value="&lt;font style=&quot;font-size: 12px;&quot;&gt;thread 5&lt;/font&gt;" style="ellipse;whiteSpace=wrap;html=1;fontSize=16;dashed=1;" vertex="1" parent="1">
          <mxGeometry x="635" y="920" width="75" height="35" as="geometry" />
        </mxCell>
        <mxCell id="AW1LEWpmzd-rb1zfkhtk-30" value="RejectedExecutionHandler" style="text;html=1;strokeColor=none;fillColor=none;align=center;verticalAlign=middle;whiteSpace=wrap;rounded=0;fontSize=14;" vertex="1" parent="1">
          <mxGeometry x="240" y="850" width="170" height="30" as="geometry" />
        </mxCell>
        <mxCell id="AW1LEWpmzd-rb1zfkhtk-31" value="AbortPolicy" style="rounded=0;whiteSpace=wrap;html=1;fontSize=12;" vertex="1" parent="1">
          <mxGeometry x="250" y="890" width="90" height="30" as="geometry" />
        </mxCell>
        <mxCell id="AW1LEWpmzd-rb1zfkhtk-32" value="CallerRunsPolicy" style="rounded=0;whiteSpace=wrap;html=1;fontSize=12;" vertex="1" parent="1">
          <mxGeometry x="350" y="890" width="110" height="30" as="geometry" />
        </mxCell>
        <mxCell id="AW1LEWpmzd-rb1zfkhtk-33" value="DiscardPolicy" style="rounded=0;whiteSpace=wrap;html=1;fontSize=12;" vertex="1" parent="1">
          <mxGeometry x="250" y="940" width="90" height="30" as="geometry" />
        </mxCell>
        <mxCell id="AW1LEWpmzd-rb1zfkhtk-34" value="DiscardOldedPolicy" style="rounded=0;whiteSpace=wrap;html=1;fontSize=12;" vertex="1" parent="1">
          <mxGeometry x="350" y="940" width="110" height="30" as="geometry" />
        </mxCell>
        <mxCell id="AW1LEWpmzd-rb1zfkhtk-37" style="edgeStyle=orthogonalEdgeStyle;rounded=0;orthogonalLoop=1;jettySize=auto;html=1;exitX=1;exitY=0.5;exitDx=0;exitDy=0;exitPerimeter=0;entryX=0;entryY=0.5;entryDx=0;entryDy=0;fontSize=14;endArrow=blockThin;endFill=1;" edge="1" parent="1" source="AW1LEWpmzd-rb1zfkhtk-35" target="AW1LEWpmzd-rb1zfkhtk-2">
          <mxGeometry relative="1" as="geometry" />
        </mxCell>
        <mxCell id="AW1LEWpmzd-rb1zfkhtk-35" value="&lt;font style=&quot;font-size: 14px;&quot;&gt;Main Thread&lt;/font&gt;" style="strokeWidth=2;html=1;shape=mxgraph.flowchart.terminator;whiteSpace=wrap;fontSize=12;" vertex="1" parent="1">
          <mxGeometry x="90" y="730" width="100" height="60" as="geometry" />
        </mxCell>
        <mxCell id="AW1LEWpmzd-rb1zfkhtk-42" style="edgeStyle=orthogonalEdgeStyle;rounded=0;orthogonalLoop=1;jettySize=auto;html=1;exitX=1;exitY=0.75;exitDx=0;exitDy=0;entryX=0.035;entryY=0.244;entryDx=0;entryDy=0;entryPerimeter=0;fontSize=14;endArrow=blockThin;endFill=1;" edge="1" parent="1" source="AW1LEWpmzd-rb1zfkhtk-2" target="AW1LEWpmzd-rb1zfkhtk-28">
          <mxGeometry relative="1" as="geometry">
            <Array as="points">
              <mxPoint x="480" y="773" />
              <mxPoint x="480" y="879" />
            </Array>
          </mxGeometry>
        </mxCell>
        <mxCell id="AW1LEWpmzd-rb1zfkhtk-41" style="edgeStyle=orthogonalEdgeStyle;rounded=0;orthogonalLoop=1;jettySize=auto;html=1;exitX=1;exitY=0.5;exitDx=0;exitDy=0;entryX=0;entryY=0;entryDx=0;entryDy=0;fontSize=14;endArrow=blockThin;endFill=1;" edge="1" parent="1" source="AW1LEWpmzd-rb1zfkhtk-2" target="AW1LEWpmzd-rb1zfkhtk-25">
          <mxGeometry relative="1" as="geometry" />
        </mxCell>
        <mxCell id="AW1LEWpmzd-rb1zfkhtk-48" style="edgeStyle=orthogonalEdgeStyle;rounded=0;orthogonalLoop=1;jettySize=auto;html=1;exitX=0.5;exitY=1;exitDx=0;exitDy=0;fontSize=14;endArrow=blockThin;endFill=1;entryX=0.861;entryY=0.003;entryDx=0;entryDy=0;entryPerimeter=0;" edge="1" parent="1" source="AW1LEWpmzd-rb1zfkhtk-8" target="AW1LEWpmzd-rb1zfkhtk-18">
          <mxGeometry relative="1" as="geometry" />
        </mxCell>
        <mxCell id="AW1LEWpmzd-rb1zfkhtk-50" value="take()" style="text;whiteSpace=wrap;html=1;fontSize=14;" vertex="1" parent="1">
          <mxGeometry x="710" y="640" width="60" height="20" as="geometry" />
        </mxCell>
        <mxCell id="AW1LEWpmzd-rb1zfkhtk-51" value="1" style="ellipse;whiteSpace=wrap;html=1;aspect=fixed;fontSize=14;fillColor=#60a917;strokeColor=#2D7600;fontColor=#ffffff;" vertex="1" parent="1">
          <mxGeometry x="370" y="747.5" width="15" height="15" as="geometry" />
        </mxCell>
        <mxCell id="AW1LEWpmzd-rb1zfkhtk-53" value="3" style="ellipse;whiteSpace=wrap;html=1;aspect=fixed;fontSize=14;fillColor=#60a917;strokeColor=#2D7600;fontColor=#ffffff;" vertex="1" parent="1">
          <mxGeometry x="399" y="770" width="15" height="15" as="geometry" />
        </mxCell>
        <mxCell id="AW1LEWpmzd-rb1zfkhtk-55" value="2" style="ellipse;whiteSpace=wrap;html=1;aspect=fixed;fontSize=14;fillColor=#60a917;strokeColor=#2D7600;fontColor=#ffffff;" vertex="1" parent="1">
          <mxGeometry x="282.5" y="650" width="15" height="15" as="geometry" />
        </mxCell>
        <mxCell id="AW1LEWpmzd-rb1zfkhtk-56" value="4" style="ellipse;whiteSpace=wrap;html=1;aspect=fixed;fontSize=14;fillColor=#60a917;strokeColor=#2D7600;fontColor=#ffffff;" vertex="1" parent="1">
          <mxGeometry x="282.5" y="805" width="15" height="15" as="geometry" />
        </mxCell>
      </root>
    </mxGraphModel>
  </diagram>
</mxfile>
